<svg style="position: absolute; width: 0; height: 0; overflow: hidden" version="1.1" xmlns="http://www.w3.org/2000/svg" xmlns:xlink="http://www.w3.org/1999/xlink">
    <defs>
        <symbol id="icon-plus" viewBox="0 0 24 24">
            <title>plus</title>
            <path class="path1" d="M12 2q0.414 0 0.707 0.293t0.293 0.707v8h8q0.414 0 0.707 0.293t0.293 0.707-0.293 0.707-0.707 0.293h-8v8q0 0.414-0.293 0.707t-0.707 0.293-0.707-0.293-0.293-0.707v-8h-8q-0.414 0-0.707-0.293t-0.293-0.707 0.293-0.707 0.707-0.293h8v-8q0-0.414 0.293-0.707t0.707-0.293z"></path>
        </symbol>
        <symbol id="icon-tag" viewBox="0 0 24 24">
            <title>tag</title>
            <path class="path1" d="M1 1h11.313l9.813 9.805q0.875 0.875 0.875 2.117 0 1.25-0.875 2.125l-7.078 7.078q-0.875 0.875-2.117 0.875-1.25 0-2.125-0.875l-9.805-9.813v-11.313zM20.711 12.219l-9.227-9.219h-8.484v8.484l9.219 9.227q0.297 0.289 0.711 0.289t0.703-0.289l7.078-7.078q0.289-0.289 0.289-0.703t-0.289-0.711zM8.5 6q1.039 0 1.77 0.73t0.73 1.77-0.73 1.77-1.77 0.73-1.77-0.73-0.73-1.77 0.73-1.77 1.77-0.73zM8.5 8q-0.203 0-0.352 0.148t-0.148 0.352 0.148 0.352 0.352 0.148 0.352-0.148 0.148-0.352-0.148-0.352-0.352-0.148z"></path>
        </symbol>
        <symbol id="icon-check" viewBox="0 0 24 24">
            <title>check</title>
            <path class="path1" d="M21 5q0.43 0 0.715 0.285t0.285 0.715q0 0.422-0.289 0.711l-12 12q-0.289 0.289-0.711 0.289t-0.711-0.289l-6-6q-0.289-0.289-0.289-0.711 0-0.43 0.285-0.715t0.715-0.285q0.422 0 0.711 0.289l5.289 5.297 11.289-11.297q0.289-0.289 0.711-0.289z"></path>
        </symbol>
    </defs>
</svg>
